<?xml version="1.0" standalone="no"?>
<!DOCTYPE svg PUBLIC "-//W3C//DTD SVG 20010904//EN"
 "http://www.w3.org/TR/2001/REC-SVG-20010904/DTD/svg10.dtd">
<svg version="1.0" xmlns="http://www.w3.org/2000/svg"
 width="382.000000pt" height="207.000000pt" viewBox="0 0 382.000000 207.000000"
 preserveAspectRatio="xMidYMid meet">
<g transform="translate(0.000000,207.000000) scale(0.100000,-0.100000)"
fill="#000000" stroke="none">
<path d="M982 1877 c-17 -18 -19 -24 -7 -24 8 0 13 3 10 5 -3 3 2 14 12 24 24
27 10 22 -15 -5z"/>
<path d="M1007 1844 c-4 -4 -7 -15 -7 -25 0 -25 -127 -207 -150 -214 -13 -4
-20 -15 -20 -33 0 -18 -25 -57 -76 -122 -42 -52 -77 -97 -79 -98 -8 -8 -49 85
-46 105 3 26 -12 36 -40 28 -27 -9 -22 -49 7 -53 21 -3 57 -60 60 -97 1 -11
-11 -38 -26 -60 -15 -22 -38 -60 -51 -85 l-24 -45 -5 45 c-4 38 -10 47 -40 65
-21 12 -35 28 -35 40 0 30 -33 31 -44 2 -5 -13 -21 -33 -35 -44 -53 -42 -98
-84 -94 -89 3 -2 23 12 45 31 42 35 60 45 47 23 -4 -7 -3 -8 5 -4 6 4 9 12 6
17 -8 12 19 39 39 39 18 0 80 -115 71 -130 -4 -6 -52 -10 -108 -10 -90 0 -105
2 -120 20 -9 11 -22 20 -29 20 -20 0 -106 176 -95 195 5 10 4 21 -3 31 -17 20
-38 18 -52 -6 -9 -13 -28 -22 -60 -26 -27 -4 -48 -10 -48 -15 0 -4 17 -5 37
-2 82 14 78 17 74 -72 -1 -44 -4 -81 -6 -83 -8 -9 -85 23 -88 37 -2 9 18 38
47 69 28 28 45 52 39 52 -21 0 -103 -107 -103 -135 0 -14 4 -23 10 -20 17 11
90 -17 90 -34 -1 -46 -12 -59 -56 -66 -24 -3 -44 -10 -44 -15 0 -5 15 -4 32 1
56 16 61 13 53 -28 -9 -47 -21 -55 -57 -37 -16 8 -28 10 -28 4 0 -5 11 -12 25
-16 33 -8 32 -29 -2 -60 -26 -24 -15 -24 16 0 29 23 76 14 153 -27 54 -28 78
-47 80 -61 3 -18 10 -21 58 -22 72 0 300 -46 300 -59 0 -6 -21 -28 -47 -48
-65 -50 -127 -107 -122 -112 2 -2 43 29 90 70 48 40 97 75 110 77 18 2 24 10
25 28 3 61 4 64 16 52 8 -8 8 -15 -3 -28 -12 -16 -12 -17 3 -11 12 4 21 -1 29
-15 10 -18 9 -20 -5 -15 -8 3 -18 2 -21 -4 -4 -5 -3 -9 2 -8 4 1 15 1 23 0 19
-1 114 -166 105 -181 -4 -6 -1 -9 7 -8 9 2 12 -6 10 -24 -4 -37 35 -60 55 -32
7 10 13 20 13 24 0 3 14 11 32 18 17 6 29 14 26 18 -3 3 -19 -1 -35 -10 -44
-22 -57 -8 -45 48 5 25 6 43 1 40 -5 -2 -12 8 -15 23 -13 52 -32 70 -80 78
-35 5 -47 12 -59 35 -14 27 -14 28 26 55 23 14 42 25 44 23 1 -2 16 -28 34
-58 17 -30 31 -50 31 -43 0 7 -13 35 -29 62 l-30 50 51 31 c28 17 54 28 58 23
12 -12 -19 -166 -36 -179 -18 -15 -18 -38 1 -54 13 -10 19 -10 34 4 11 10 30
16 42 14 29 -4 45 -61 27 -96 -14 -27 -1 -55 28 -61 22 -4 44 -32 37 -46 -4
-5 -3 -7 2 -3 4 4 30 -20 56 -54 27 -33 49 -57 49 -53 0 5 -27 44 -61 87 -34
44 -59 82 -56 85 7 6 140 -17 157 -27 16 -10 -8 -141 -28 -156 -20 -14 -9 -44
17 -44 21 0 34 23 20 37 -6 6 -5 39 3 87 l12 78 40 -6 c22 -4 41 -8 43 -10 1
-1 19 -56 39 -122 20 -65 40 -126 46 -134 13 -21 5 12 -36 148 -27 88 -31 112
-19 108 8 -3 21 -6 29 -6 8 0 28 -14 43 -31 26 -28 29 -29 45 -14 9 10 14 25
12 34 -6 19 34 68 60 73 13 2 19 12 20 33 1 55 4 62 26 72 16 7 31 5 59 -9 21
-10 42 -18 47 -18 35 0 13 -44 -97 -198 -65 -92 -124 -177 -132 -190 -8 -12
-17 -22 -22 -22 -7 0 -4 65 8 162 3 21 1 38 -3 38 -5 0 -12 -43 -16 -96 -5
-81 -10 -99 -28 -113 -18 -15 -19 -21 -9 -40 9 -16 20 -21 39 -19 23 3 27 8
27 34 0 24 31 75 130 217 73 104 139 188 150 191 30 9 209 -70 220 -97 12 -27
53 -30 68 -5 9 13 7 21 -6 36 -17 19 -17 24 -1 103 15 78 27 109 43 109 12 0
91 -73 91 -85 0 -6 -29 -35 -65 -64 -36 -29 -65 -55 -65 -57 0 -7 18 5 80 52
30 23 65 44 78 47 25 6 189 -66 208 -91 12 -17 34 -8 34 14 0 8 -7 17 -15 20
-8 3 -48 59 -89 125 -66 106 -73 121 -60 134 9 8 26 15 39 15 35 0 178 29 198
41 16 9 18 7 12 -10 -4 -14 0 -23 15 -31 11 -6 25 -8 30 -5 13 8 108 -64 116
-87 7 -22 32 -24 40 -3 3 8 26 25 51 37 24 12 47 26 49 30 6 10 -22 -1 -65
-24 -18 -11 -35 -17 -38 -15 -2 3 5 32 17 66 11 33 20 67 20 76 0 8 6 15 14
15 7 0 19 6 25 14 10 12 21 10 72 -12 66 -28 74 -49 26 -66 -26 -9 -32 -7 -64
29 -31 36 -31 29 3 -25 5 -8 9 -26 9 -40 0 -19 6 -26 27 -30 18 -3 49 -31 93
-82 37 -43 68 -78 71 -78 10 0 -1 15 -66 89 -38 44 -70 88 -70 99 0 24 28 49
60 53 25 3 98 -17 113 -31 16 -14 -13 -193 -35 -216 -18 -20 -18 -23 -3 -38
21 -21 31 -20 47 2 18 24 261 60 283 42 18 -15 49 5 41 27 -3 8 16 52 42 98
47 84 73 104 86 68 3 -10 23 -45 45 -78 22 -33 40 -68 40 -77 2 -30 21 -30 50
0 18 18 57 38 100 52 39 12 71 28 71 34 0 6 -65 33 -145 60 -139 48 -174 69
-141 88 8 5 40 30 71 56 l57 49 81 -29 c45 -15 74 -22 64 -14 -9 7 -42 21 -73
31 l-55 17 23 26 c23 25 8 22 -23 -5 -15 -12 -24 -12 -65 1 -27 8 -44 15 -39
15 6 1 39 6 74 11 44 8 67 8 76 0 7 -6 20 -8 29 -4 9 3 27 -1 41 -10 14 -9 25
-12 25 -6 0 6 -11 15 -24 21 -13 6 -26 19 -29 29 -5 19 31 83 42 75 9 -5 12
23 5 44 -3 10 -7 11 -19 1 -8 -7 -12 -17 -9 -22 9 -15 -28 -78 -47 -78 -22 0
-63 46 -54 61 5 7 4 10 -2 6 -13 -8 -100 82 -105 108 -2 12 -11 20 -23 20 -27
0 -26 -27 2 -40 11 -6 49 -42 84 -80 34 -39 66 -71 71 -73 4 -2 8 -10 8 -17 0
-9 -19 -16 -57 -20 -32 -3 -68 -10 -80 -15 -29 -12 -55 12 -48 43 10 44 23
142 19 146 -6 6 -12 -18 -24 -96 -7 -41 -17 -74 -25 -77 -15 -5 -114 19 -127
32 -4 4 29 40 77 81 48 40 84 76 81 79 -3 2 -39 -25 -80 -62 -99 -88 -115 -92
-213 -55 -43 17 -79 31 -80 32 -1 2 13 41 32 87 19 47 35 93 35 102 0 39 30
36 157 -19 68 -29 127 -53 131 -53 16 0 -42 30 -138 70 -58 25 -111 52 -118
62 -15 21 -42 13 -42 -12 0 -19 -159 -170 -178 -170 -14 0 -157 250 -157 275
0 27 -37 27 -45 -1 -7 -30 -112 -163 -132 -170 -10 -3 -18 -14 -18 -26 0 -24
-59 -110 -71 -102 -5 3 -18 0 -29 -6 -16 -9 -36 -6 -95 14 -41 14 -94 30 -117
37 l-43 12 112 37 c62 21 121 36 132 33 10 -2 22 0 26 7 4 7 11 8 18 2 17 -13
57 -22 57 -12 0 5 -13 11 -29 15 -16 3 -32 13 -35 21 -7 18 -45 18 -52 -1 -7
-18 -214 -86 -241 -79 -10 3 -47 43 -81 90 -56 74 -62 87 -50 102 12 15 11 16
-4 3 -18 -14 -19 -14 -34 37 -4 14 -41 17 -46 3 -4 -12 -167 -17 -193 -6 -11
5 -38 23 -60 40 -52 42 -126 88 -131 82 -3 -3 26 -25 63 -51 124 -84 123 -80
49 -141 -51 -41 -72 -41 -82 2 -3 15 -17 64 -30 107 -16 54 -20 83 -14 92 17
20 0 45 -29 42 -21 -2 -26 -8 -25 -28 1 -34 -170 -275 -198 -276 -27 -2 -51
-28 -52 -58 -1 -18 -21 -42 -71 -85 -38 -34 -77 -61 -85 -61 -13 0 -67 108
-58 114 2 2 46 8 98 15 52 7 97 15 99 17 12 11 -11 11 -79 -1 -120 -22 -125
-21 -140 25 -7 22 -11 43 -8 45 3 3 56 -6 118 -20 62 -14 114 -24 117 -21 5 5
-7 9 -124 35 -69 16 -99 28 -119 48 -30 29 -105 234 -107 293 -2 33 -23 51
-40 34z m67 -181 c25 -75 43 -140 38 -144 -4 -4 -55 6 -114 23 -75 22 -108 36
-111 48 -4 16 119 210 134 210 4 0 28 -62 53 -137z m620 30 c37 -124 54 -196
50 -208 -6 -15 -15 -17 -139 -35 -38 -6 -78 -13 -88 -16 -42 -13 -25 30 60
150 48 69 93 125 100 125 6 1 14 -7 17 -16z m416 -123 c0 -14 -119 -250 -126
-250 -3 0 -14 4 -24 10 -15 8 -20 28 -26 107 -5 54 -9 105 -9 113 0 10 14 17
45 21 76 10 140 10 140 -1z m85 -72 c28 -39 60 -82 73 -97 12 -14 21 -33 20
-41 -3 -13 -106 -56 -200 -83 -32 -9 -40 -8 -58 8 -11 10 -23 16 -26 12 -3 -3
4 -10 15 -17 12 -6 21 -15 21 -19 0 -11 -48 -24 -60 -16 -10 6 145 325 158
325 4 -1 30 -33 57 -72z m-1187 29 c46 -14 89 -33 97 -43 11 -16 9 -23 -12
-51 -14 -18 -28 -33 -32 -33 -4 0 -36 30 -71 66 -36 36 -74 70 -85 75 -11 5
17 -25 62 -68 77 -73 81 -79 63 -91 -11 -7 -19 -17 -17 -24 1 -7 -23 -25 -53
-42 -30 -16 -49 -31 -43 -33 6 -2 32 9 58 26 59 38 75 33 62 -17 l-10 -38 -53
6 c-30 3 -54 2 -54 -2 0 -4 17 -8 38 -8 64 0 66 -5 39 -111 -14 -52 -28 -106
-31 -121 -4 -16 -10 -28 -15 -28 -13 0 -54 187 -45 201 4 8 3 9 -4 5 -7 -4
-12 0 -13 11 0 10 -3 13 -5 7 -2 -6 7 -57 20 -114 14 -57 22 -108 20 -112 -3
-5 -24 3 -48 17 -24 14 -49 25 -56 25 -7 0 -18 7 -25 16 -9 13 -3 32 32 103
25 49 52 89 63 93 24 9 26 36 5 44 -11 4 -15 21 -15 56 0 43 2 49 17 44 9 -4
38 -9 63 -12 35 -3 40 -2 20 5 -14 5 -41 12 -61 15 -41 7 -49 22 -49 97 0 48
15 73 40 65 8 -3 52 -16 98 -29z m911 -92 c6 -60 13 -125 16 -142 3 -18 2 -33
-3 -33 -16 0 -137 185 -134 205 4 22 93 97 104 87 4 -4 12 -56 17 -117z m972
98 c7 -16 39 -72 71 -126 31 -54 55 -104 52 -111 -12 -31 -63 -27 -133 10
l-68 36 22 89 c13 49 20 89 16 89 -4 0 -16 -38 -26 -85 -11 -47 -22 -85 -25
-85 -3 0 -16 7 -28 16 -12 8 -22 11 -22 6 0 -5 11 -14 25 -20 17 -8 25 -20 26
-39 1 -25 2 -25 7 -7 7 22 7 22 61 -7 l54 -29 -39 -2 c-22 -1 -50 -2 -64 -3
-14 -1 -55 -2 -92 -3 -42 -1 -68 -6 -68 -13 0 -7 22 -10 64 -8 36 2 68 1 72
-3 3 -4 14 -3 23 1 30 17 130 24 146 11 12 -10 10 -15 -13 -35 l-27 -24 -43
26 c-24 13 -46 22 -49 20 -3 -3 14 -15 37 -27 23 -12 40 -25 38 -29 -2 -5 -31
-32 -64 -60 -85 -71 -99 -69 -160 22 -26 39 -47 77 -45 82 2 6 4 21 5 35 1 30
54 107 79 113 9 3 17 14 17 24 0 27 101 163 121 163 8 0 22 -12 30 -27z
m-2031 -58 l0 -65 -47 7 c-57 7 -54 -4 3 -13 21 -3 42 -8 47 -11 10 -6 9 -101
-2 -107 -9 -6 -150 39 -164 53 -10 10 144 212 155 205 5 -3 8 -34 8 -69z m320
-107 c43 -115 44 -145 7 -177 -29 -25 -40 -21 -51 14 -5 19 -2 21 31 19 36 -3
36 -2 -8 8 -41 10 -49 16 -65 52 -11 23 -20 43 -21 46 -2 3 2 12 7 20 8 12 19
5 64 -39 31 -30 58 -52 61 -49 4 3 -17 25 -44 49 -28 24 -51 47 -51 51 0 4 12
9 28 11 15 2 11 3 -10 2 -53 -4 -62 11 -30 51 15 19 32 34 37 34 6 0 26 -42
45 -92z m564 76 c3 -9 2 -12 -5 -9 -5 4 -44 -19 -85 -50 l-75 -56 -39 31 c-67
53 -60 60 90 80 47 6 87 14 89 16 9 8 19 4 25 -12z m1450 -81 c-19 -54 -38
-101 -42 -105 -12 -12 -81 13 -84 30 -2 9 24 40 57 71 32 31 68 66 78 79 10
12 20 22 23 22 2 0 -12 -44 -32 -97z m-1714 65 c0 -4 -8 -8 -17 -9 -11 0 -13
-3 -5 -6 6 -2 9 -9 6 -14 -3 -6 -11 -5 -20 2 -10 8 -11 15 -4 24 11 13 40 16
40 3z m368 -85 c79 -110 80 -124 5 -112 -27 4 -69 8 -94 8 -65 1 -74 16 -48
77 11 27 24 58 29 69 4 11 11 28 14 38 3 9 10 17 15 17 5 0 41 -44 79 -97z
m-139 3 c-35 -84 -46 -90 -92 -52 l-29 23 73 57 c40 31 74 54 76 52 2 -2 -10
-38 -28 -80z m-135 -31 c42 -34 71 -67 72 -79 1 -12 -17 -42 -39 -69 -22 -26
-37 -50 -35 -53 3 -2 18 12 34 33 40 53 53 65 65 61 6 -2 23 -33 38 -70 27
-63 28 -67 9 -71 -10 -3 -51 5 -91 19 -40 13 -79 24 -88 24 -30 0 -48 25 -55
75 l-6 50 47 34 c25 18 44 36 41 39 -3 3 -24 -9 -45 -26 -22 -18 -42 -32 -45
-32 -3 0 -7 24 -9 53 l-4 52 0 -57 c1 -91 -32 -108 -153 -84 -25 5 -31 4 -20
-3 8 -5 31 -13 52 -16 20 -4 39 -13 42 -21 9 -23 34 -16 48 13 18 38 38 41 38
6 0 -15 3 -37 6 -49 4 -16 -2 -26 -29 -42 l-35 -20 -66 60 c-37 33 -69 58 -72
55 -3 -2 22 -28 55 -57 34 -29 61 -56 61 -60 0 -4 -10 -11 -22 -17 -19 -8 -28
-3 -70 41 -43 47 -63 96 -38 96 6 0 10 11 10 24 0 34 141 160 170 151 11 -3
28 -2 37 4 10 5 20 6 23 2 3 -4 36 -33 74 -66z m-1385 -61 c28 -53 48 -100 46
-104 -3 -5 -31 1 -63 12 l-57 21 9 84 c6 45 11 83 12 83 1 0 25 -43 53 -96z
m1785 33 c-12 -40 -18 -38 -27 11 -6 30 -5 32 14 22 15 -8 18 -17 13 -33z
m314 31 c-9 -35 -85 -157 -100 -161 -23 -6 -186 45 -192 60 -3 7 10 17 29 23
32 11 37 9 88 -29 30 -23 57 -41 62 -41 4 0 -14 17 -41 37 -27 20 -51 38 -53
40 -9 6 9 15 100 48 107 39 112 40 107 23z m169 -25 c62 -21 113 -43 113 -49
0 -19 -172 -135 -195 -132 -17 3 -22 17 -36 103 -15 96 -15 115 -1 115 3 0 57
-17 119 -37z m-1685 1 c44 -15 76 -30 71 -35 -8 -8 -113 -49 -125 -49 -5 0 -8
8 -8 19 0 23 -29 92 -30 70 0 -9 6 -35 14 -57 l14 -40 -64 -27 c-36 -15 -63
-29 -61 -32 3 -2 32 7 66 21 44 18 63 21 65 13 2 -7 11 -33 21 -59 9 -26 14
-52 11 -57 -3 -5 -38 4 -77 21 -39 16 -73 27 -76 25 -2 -3 27 -18 66 -33 39
-16 71 -32 71 -36 0 -4 -18 -12 -41 -18 -22 -6 -46 -13 -53 -16 -21 -8 -62 74
-61 121 2 48 87 194 114 195 2 0 39 -12 83 -26z m312 -10 c20 -43 18 -47 -19
-38 -21 5 -25 11 -21 28 3 11 6 27 6 34 0 23 16 12 34 -24z m1240 -43 c4 -39
11 -83 16 -100 7 -24 5 -30 -11 -34 -25 -7 -90 17 -101 37 -6 11 3 38 34 95
24 44 46 77 49 75 4 -2 9 -35 13 -73z m692 18 c3 -6 19 -9 35 -5 31 6 89 -10
89 -25 0 -6 -7 -24 -16 -40 -8 -17 -13 -33 -10 -36 3 -3 13 13 22 36 9 22 18
41 21 41 4 0 78 -29 137 -54 29 -12 28 -13 -60 -41 -49 -16 -84 -30 -77 -32 7
-3 47 7 89 21 42 14 80 23 85 20 5 -3 7 -15 5 -27 -3 -12 -7 -38 -11 -59 -3
-20 -13 -39 -22 -42 -25 -10 -163 54 -163 75 0 42 -57 51 -75 11 -6 -13 -19
-22 -32 -22 -12 0 -28 -3 -37 -6 -13 -5 -14 -2 -5 25 11 32 23 39 34 21 3 -5
12 -10 18 -10 7 1 1 10 -12 21 -21 17 -23 24 -14 52 l9 32 25 -26 c15 -14 28
-32 31 -40 3 -8 9 -11 13 -7 8 7 7 11 -26 68 -15 27 -18 30 -14 10 l6 -25 -20
23 c-22 25 -26 22 -36 -30 l-7 -38 -30 18 -29 17 30 27 c36 32 38 38 14 38
-15 0 -16 2 -3 10 20 13 27 12 36 -1z m-2493 -27 c17 -15 24 -72 9 -72 -4 0
-14 15 -21 33 -8 17 -18 40 -23 50 -9 20 3 16 35 -11z m337 13 c0 -12 -85
-175 -92 -175 -4 0 -14 21 -22 48 -8 26 -17 54 -20 62 -5 12 6 20 46 34 29 10
57 23 63 27 10 10 25 12 25 4z m232 -15 c10 0 26 -17 38 -39 l20 -40 -28 -21
c-15 -12 -45 -38 -67 -57 -90 -81 -84 -87 -50 48 27 108 32 119 50 115 11 -3
28 -6 37 -6z m722 -8 c44 -4 81 -12 83 -18 3 -10 -146 -130 -151 -122 -1 2
-14 31 -28 66 -28 66 -28 93 0 86 9 -3 53 -8 96 -12z m122 9 c-3 -5 4 -11 15
-14 25 -7 17 -26 -9 -23 -20 3 -26 46 -6 46 3 0 3 -4 0 -9z m675 -19 c24 -10
111 -143 104 -160 -4 -11 -15 -13 -43 -8 -20 3 -51 6 -69 6 l-31 0 14 62 c8
34 13 69 12 77 -2 9 -11 -18 -21 -59 l-18 -76 -79 10 c-91 10 -99 21 -42 59
20 14 60 42 87 61 52 37 59 39 86 28z m-1371 -28 c0 -14 -3 -14 -15 -4 -13 11
-14 10 -9 -4 3 -9 10 -16 15 -16 5 0 9 -29 9 -65 0 -37 -4 -65 -10 -65 -5 0
-10 4 -10 10 0 5 -13 31 -29 58 l-29 49 26 27 c30 30 52 34 52 10z m940 -60
c0 -23 -37 -42 -95 -47 l-60 -6 -23 47 c-39 78 -27 84 83 48 52 -17 95 -35 95
-42z m-260 49 c0 -4 -10 -31 -22 -60 l-22 -53 -55 -2 -56 -2 51 -3 52 -4 -22
-54 c-11 -30 -26 -55 -32 -55 -14 0 -66 122 -56 132 15 15 147 107 155 108 4
0 7 -3 7 -7z m1064 -32 c3 -5 1 -22 -5 -39 -11 -32 -17 -34 -109 -47 -25 -4
-53 -9 -62 -11 -36 -11 -15 22 50 77 64 54 68 56 94 43 15 -8 29 -18 32 -23z
m-2802 6 c21 -7 40 -18 43 -26 3 -8 4 -14 3 -15 -2 -1 -31 -23 -66 -50 -35
-26 -65 -47 -67 -44 -2 2 -1 22 2 46 5 39 8 42 37 43 17 1 42 5 56 10 18 6 11
8 -27 4 l-53 -4 0 31 c0 25 3 29 18 23 9 -3 34 -12 54 -18z m1806 -22 c12 -25
22 -48 22 -50 0 -3 -25 -5 -55 -5 -30 0 -55 -4 -55 -8 0 -5 27 -6 59 -4 58 4
60 4 76 -28 9 -17 19 -29 22 -26 3 3 -2 17 -11 31 -16 25 -16 25 11 26 16 0
40 3 56 5 l27 5 -27 -40 c-16 -22 -36 -42 -47 -45 -14 -3 -17 -11 -13 -27 6
-23 -17 -127 -32 -142 -5 -5 -44 9 -91 33 -45 23 -79 45 -74 49 5 5 43 16 84
26 41 10 82 21 90 26 26 14 -6 10 -91 -12 -103 -26 -116 -22 -91 28 10 21 33
75 52 121 38 97 55 104 88 37z m1456 7 l59 -18 -41 -27 -42 -27 -25 40 c-37
59 -38 58 49 32z m-3174 -2 c0 -5 -5 -10 -11 -10 -5 0 -7 5 -4 10 3 6 8 10 11
10 2 0 4 -4 4 -10z m918 -50 c18 -33 31 -64 28 -69 -3 -5 -32 -12 -63 -15 -32
-4 -84 -12 -116 -18 -32 -6 -60 -8 -63 -5 -4 3 11 21 32 39 22 18 62 54 89 80
28 26 52 48 55 48 3 0 20 -27 38 -60z m142 -32 c0 -4 -9 -10 -21 -13 -11 -4
-18 -9 -16 -12 3 -2 16 1 28 8 17 9 24 9 27 0 2 -6 8 -11 13 -11 4 0 6 6 3 13
-3 8 6 18 18 24 19 8 28 7 47 -8 12 -10 20 -23 16 -29 -9 -14 -168 -13 -183 2
-7 7 -12 36 -12 66 l0 55 40 -44 c21 -24 39 -47 40 -51z m2054 50 l25 -42 -32
-22 c-37 -25 -49 -22 -43 9 3 12 8 39 11 60 3 20 8 37 10 37 2 0 15 -19 29
-42z m-2869 6 c9 -13 9 -25 -1 -53 -7 -20 -13 -44 -14 -53 0 -9 -4 -19 -10
-23 -9 -6 -182 119 -188 136 -2 5 41 9 99 9 83 0 104 -3 114 -16z m1685 -4 c0
-11 -7 -20 -15 -20 -18 0 -19 12 -3 28 16 16 18 15 18 -8z m71 4 c27 -9 49
-18 49 -20 0 -2 -25 -4 -55 -4 -48 0 -55 2 -55 20 0 24 -1 24 61 4z m-781 -24
c5 20 11 24 31 22 32 -5 34 -8 15 -27 -25 -25 -19 -31 7 -7 22 21 23 21 82 4
65 -20 64 -26 -5 -37 -25 -4 -52 -11 -60 -16 -20 -12 52 -1 102 16 25 8 40 9
47 2 7 -7 15 -6 25 2 12 10 16 5 26 -26 7 -21 19 -48 26 -61 12 -18 12 -23 1
-27 -18 -8 -241 61 -246 76 -8 26 -42 50 -62 44 -13 -4 -28 0 -40 11 -19 17
-19 18 8 34 28 17 28 16 32 -9 l4 -26 7 25z m1620 -4 c-14 -14 -32 3 -17 18 9
10 14 11 19 2 4 -6 3 -15 -2 -20z m-2728 -46 c48 -36 87 -68 88 -72 0 -14
-128 -78 -143 -72 -19 7 -21 14 -38 112 -7 40 -16 75 -21 78 -8 5 -4 -23 17
-118 7 -35 8 -61 3 -66 -6 -6 -39 8 -86 34 -42 24 -80 44 -84 44 -5 0 -8 8 -8
18 1 9 28 37 62 62 84 62 102 61 210 -20z m3124 38 c-4 -18 -9 -50 -12 -70 -4
-20 -13 -39 -22 -43 -21 -8 -122 25 -122 39 0 11 58 52 64 44 2 -1 15 -21 29
-43 33 -48 35 -38 5 17 -19 34 -20 41 -8 48 8 5 24 16 35 24 30 23 38 19 31
-16z m100 14 l42 -17 -70 -54 c-38 -29 -71 -51 -74 -49 -4 5 15 118 23 131 7
11 34 7 79 -11z m-3022 -40 l25 -49 -50 -15 c-35 -12 -49 -13 -49 -5 0 11 16
76 25 105 8 24 25 11 49 -36z m1790 26 c-4 -6 -10 -5 -15 3 -7 12 -9 12 -9 0
0 -8 -3 -12 -6 -8 -10 10 6 26 21 21 8 -4 12 -11 9 -16z m-169 -73 c4 -42 5
-79 1 -82 -10 -10 -105 40 -109 57 -5 24 55 99 80 100 19 0 22 -7 28 -75z
m113 53 c2 -9 -16 -42 -39 -73 -23 -30 -40 -58 -37 -60 2 -3 24 22 47 54 56
77 81 82 148 29 26 -20 48 -43 48 -50 0 -7 -37 -19 -99 -30 -54 -10 -106 -20
-116 -23 -29 -9 -47 25 -52 103 l-5 73 51 -3 c38 -2 52 -7 54 -20z m742 14 c0
-4 -12 -15 -27 -24 -16 -9 -39 -29 -53 -44 -27 -30 -19 -26 47 25 58 46 73 40
96 -41 24 -81 19 -102 -17 -85 -28 13 -29 20 -17 85 5 23 5 45 1 47 -5 3 -11
-22 -15 -56 -5 -39 -11 -58 -19 -55 -6 3 -28 10 -49 17 -21 7 -42 20 -47 30
-12 21 16 96 39 102 28 8 61 7 61 -1z m-527 -18 c20 -4 26 -10 23 -22 -3 -10
-8 -29 -12 -44 -3 -16 -12 -28 -19 -28 -15 0 -125 90 -125 103 0 8 66 3 133
-9z m417 -34 c-16 -39 -29 -42 -94 -18 -83 31 -78 37 44 55 30 4 57 5 59 0 1
-4 -2 -21 -9 -37z m242 26 c7 5 8 3 3 -6 -6 -10 -4 -12 9 -7 10 4 15 3 11 -3
-6 -9 10 -14 42 -13 7 1 11 -3 8 -7 -3 -5 2 -10 11 -12 11 -2 4 -11 -25 -30
l-41 -27 -15 27 c-19 34 -65 90 -65 78 0 -5 16 -31 36 -58 34 -48 35 -51 18
-69 -23 -25 -34 -24 -34 4 0 12 -7 44 -15 72 -20 65 -14 83 20 61 14 -9 31
-14 37 -10z m-432 -12 c0 -16 -16 -19 -25 -4 -8 13 4 32 16 25 5 -4 9 -13 9
-21z m-74 6 c13 0 24 -4 24 -10 0 -14 -141 -83 -151 -73 -4 4 -2 28 4 52 l12
43 44 -6 c24 -3 54 -6 67 -6z m-1942 -18 c3 -5 -6 -31 -19 -58 -14 -27 -25
-56 -25 -63 0 -20 -11 -7 -44 50 l-26 46 47 16 c57 19 60 19 67 9z m96 -14
c19 -9 43 -19 53 -22 29 -9 19 -30 -28 -58 l-45 -27 -26 50 c-14 28 -28 49
-30 46 -3 -3 6 -28 20 -55 l25 -50 -42 -25 c-34 -21 -44 -23 -55 -13 -25 24
59 188 88 173 3 -1 21 -10 40 -19z m16 6 c18 -14 18 -14 -6 -3 -31 14 -36 19
-24 19 6 0 19 -7 30 -16z m647 10 c10 -10 -4 -34 -20 -34 -13 0 -13 3 -3 15
11 13 10 15 -6 9 -16 -5 -16 -4 -4 5 17 12 24 13 33 5z m-98 -44 l25 -26 -65
-64 c-35 -35 -66 -62 -68 -59 -2 2 -13 39 -24 81 -14 51 -17 80 -11 86 6 6 35
10 64 9 44 -1 59 -6 79 -27z m40 11 c3 -10 17 -22 30 -25 20 -5 28 -20 51 -96
15 -50 29 -88 31 -86 3 2 -7 44 -22 92 -37 122 -34 124 122 76 68 -20 123 -42
123 -48 0 -8 -80 -70 -126 -97 -7 -4 -32 23 -63 68 -28 41 -57 77 -63 81 -15
9 -6 -6 54 -88 26 -37 48 -71 48 -75 0 -15 -35 -29 -59 -24 -16 5 -37 31 -72
95 -27 49 -49 91 -49 95 0 3 -10 11 -22 16 -29 13 -35 35 -10 35 12 0 23 -9
27 -19z m1278 13 c12 -4 11 -17 -9 -81 -29 -94 -36 -102 -66 -73 -12 12 -35
29 -50 38 -44 26 -35 45 40 85 79 43 67 38 85 31z m-1493 -17 c8 -7 25 -49 36
-93 21 -79 21 -81 3 -77 -11 3 -25 0 -33 -6 -10 -9 -21 -7 -45 6 -17 10 -31
21 -31 25 0 7 -114 89 -151 109 -15 8 -19 8 -15 0 4 -6 3 -11 -3 -11 -5 0 -13
4 -16 10 -7 11 19 18 129 35 104 17 108 17 126 2z m-576 -56 c32 -52 35 -62
25 -84 -14 -31 -40 -38 -99 -27 -172 30 -240 45 -240 51 0 13 119 69 145 69
16 0 42 -19 81 -60 31 -33 62 -60 68 -60 6 0 -18 28 -52 63 -34 34 -62 68 -62
74 0 10 52 29 87 32 6 1 28 -26 47 -58z m2754 29 c44 -14 65 -47 44 -73 -6 -6
-26 -41 -45 -77 -20 -35 -40 -66 -45 -68 -11 -3 -146 187 -138 195 39 39 107
48 184 23z m-1268 -26 c28 -14 50 -30 48 -36 -4 -11 -137 -83 -143 -76 -4 4
23 116 32 131 6 10 5 10 63 -19z m-1086 -44 c4 0 4 6 0 13 -5 6 3 4 16 -5 14
-9 24 -21 23 -27 -2 -6 7 -16 20 -22 12 -6 23 -13 25 -14 2 -2 -6 -21 -18 -44
-16 -33 -26 -41 -50 -43 -76 -4 -71 -8 -97 72 -14 47 -21 60 -17 35 3 -22 12
-57 19 -77 12 -37 12 -38 -10 -38 -42 0 -46 19 -28 117 l17 90 47 -28 c25 -16
49 -29 53 -29z m440 -43 c26 -49 45 -91 43 -94 -3 -2 -48 0 -101 6 -52 6 -102
11 -110 11 -8 0 -17 8 -20 18 -4 13 14 38 61 88 38 39 71 68 74 65 4 -3 28
-46 53 -94z m-463 76 c13 -15 12 -15 -8 -4 -24 12 -29 21 -14 21 5 0 15 -7 22
-17z m797 -18 c-3 -3 -9 2 -12 12 -6 14 -5 15 5 6 7 -7 10 -15 7 -18z m1460
-93 c28 -40 52 -77 52 -81 0 -5 -24 -11 -52 -14 -29 -3 -91 -11 -137 -17 -48
-6 -88 -7 -93 -2 -5 5 -3 50 4 105 13 103 21 114 58 77 25 -25 39 -25 47 -2 3
9 13 25 22 35 15 18 16 18 31 -4 8 -13 39 -56 68 -97z m404 53 l117 -39 -57
-21 c-32 -12 -69 -29 -82 -38 -14 -9 -31 -17 -40 -17 -16 0 -122 159 -114 172
3 4 17 2 32 -5 15 -7 80 -31 144 -52z m-1797 -138 c37 -76 64 -141 62 -144 -9
-8 -181 69 -199 89 -10 11 -25 18 -35 16 -27 -4 -110 31 -117 49 -4 9 -5 17
-4 18 2 1 40 28 85 59 46 32 85 61 88 66 3 4 16 3 29 -3 18 -9 43 -51 91 -150z
m38 119 c45 -24 78 -48 81 -59 5 -22 -24 -197 -33 -197 -9 0 -148 290 -142
295 6 7 2 8 94 -39z m261 -29 c-4 -29 -11 -62 -15 -75 -9 -22 -9 -22 -60 18
-28 22 -56 40 -62 40 -7 0 20 18 58 38 39 21 73 36 78 34 4 -2 4 -27 1 -55z
m-1059 35 c-3 -3 -11 0 -18 7 -9 10 -8 11 6 5 10 -3 15 -9 12 -12z m1134 -50
c19 -31 52 -83 73 -115 21 -32 38 -60 38 -62 0 -10 -166 68 -178 83 -7 9 -10
26 -7 37 3 11 8 41 12 68 3 26 11 47 17 47 6 0 26 -26 45 -58z m-1078 1 c16
-10 29 -23 29 -29 0 -10 -90 -27 -98 -19 -5 4 27 65 34 65 3 0 19 -8 35 -17z
m94 -23 c3 -5 -5 -14 -17 -21 -13 -6 -20 -8 -16 -4 4 5 4 13 -2 19 -6 8 -3 12
10 13 11 1 22 -2 25 -7z m-433 -51 c16 -18 36 -144 25 -155 -4 -4 -86 136
-105 178 -7 16 64 -5 80 -23z m605 15 c60 -6 73 -10 83 -30 11 -19 10 -27 -3
-48 l-17 -25 -100 56 c-56 30 -104 53 -106 50 -5 -5 139 -88 178 -102 47 -18
10 -66 -54 -69 -30 -1 -37 5 -81 69 -55 81 -76 103 -53 58 9 -17 20 -35 26
-38 5 -3 10 -14 10 -23 0 -10 9 -35 21 -56 l20 -39 -23 7 c-13 3 -26 6 -30 6
-5 0 -8 8 -8 18 0 10 -9 46 -21 81 -21 60 -21 63 -3 82 15 16 27 20 54 15 19
-3 67 -8 107 -12z m-218 -11 c30 -17 41 -42 66 -144 6 -24 5 -25 -30 -21 -36
4 -37 5 -30 41 15 85 16 106 7 91 -6 -8 -13 -39 -17 -67 -8 -60 -4 -58 -106
-42 -68 12 -89 29 -51 44 27 10 142 89 142 98 0 4 -37 -17 -82 -48 -45 -30
-84 -53 -86 -51 -2 2 8 23 23 46 15 23 24 44 22 47 -5 4 -14 -9 -42 -61 -18
-34 -31 -28 -42 18 l-10 45 76 6 c67 5 100 9 123 14 3 0 20 -7 37 -16z m-212
-118 c0 -8 -4 -12 -9 -9 -5 3 -6 10 -3 15 9 13 12 11 12 -6z m376 -49 c15 -17
25 -24 22 -16 -4 11 3 15 26 16 25 1 28 -1 17 -11 -7 -7 -23 -16 -35 -19 -22
-7 -45 17 -72 74 -10 21 -9 22 1 6 7 -11 25 -33 41 -50z m27 -330 c0 -3 -4 -8
-10 -11 -5 -3 -10 -1 -10 4 0 6 5 11 10 11 6 0 10 -2 10 -4z"/>
<path d="M972 1691 c-11 -7 -11 -9 0 -14 9 -3 15 1 15 9 0 8 -1 14 -1 14 -1 0
-7 -4 -14 -9z"/>
<path d="M939 1633 c-13 -16 -12 -17 4 -4 9 7 17 15 17 17 0 8 -8 3 -21 -13z"/>
<path d="M1576 1552 c-3 -5 1 -15 8 -21 11 -10 14 -9 12 3 -3 21 -13 29 -20
18z"/>
<path d="M2114 1465 c-9 -14 -15 -27 -13 -30 3 -2 12 10 21 26 21 36 15 39 -8
4z"/>
<path d="M2046 1328 c3 -5 10 -6 15 -3 13 9 11 12 -6 12 -8 0 -12 -4 -9 -9z"/>
<path d="M2050 1300 c-9 -6 -10 -10 -3 -10 6 0 15 5 18 10 8 12 4 12 -15 0z"/>
<path d="M984 1503 c11 -19 41 -33 54 -24 7 4 5 11 -9 20 -12 7 -18 8 -14 2 9
-15 -8 -14 -24 2 -11 9 -12 9 -7 0z"/>
<path d="M1055 1469 c-4 -6 -4 -13 -1 -16 3 -4 6 -1 6 6 0 7 5 9 12 5 7 -4 8
-3 4 4 -9 15 -13 15 -21 1z"/>
<path d="M930 1455 c0 -2 6 -8 13 -14 10 -8 14 -7 14 2 0 8 -6 14 -14 14 -7 0
-13 -1 -13 -2z"/>
<path d="M856 1122 c-3 -5 1 -9 9 -9 8 0 12 4 9 9 -3 4 -7 8 -9 8 -2 0 -6 -4
-9 -8z"/>
<path d="M1831 1406 c16 -16 82 -56 86 -52 5 5 -71 56 -83 56 -4 0 -5 -2 -3
-4z"/>
<path d="M2706 1297 c3 -10 9 -15 12 -12 3 3 0 11 -7 18 -10 9 -11 8 -5 -6z"/>
<path d="M2781 1218 c-1 -10 -2 -20 -2 -23 -16 -58 -25 -114 -20 -110 11 6 34
120 28 137 -4 9 -6 7 -6 -4z"/>
<path d="M2705 1171 c-3 -5 -2 -12 3 -15 5 -3 9 1 9 9 0 17 -3 19 -12 6z"/>
<path d="M2830 1169 c0 -5 -5 -7 -12 -3 -7 4 -8 3 -4 -5 6 -9 11 -9 22 0 17
14 18 19 4 19 -5 0 -10 -5 -10 -11z"/>
<path d="M734 1368 c-4 -7 -4 -10 1 -6 4 4 16 3 26 -3 11 -5 19 -7 19 -5 0 3
-9 10 -19 16 -15 7 -22 7 -27 -2z"/>
<path d="M790 1336 c0 -2 7 -7 16 -10 8 -3 12 -2 9 4 -6 10 -25 14 -25 6z"/>
<path d="M1422 1296 c-7 -37 -11 -70 -8 -73 7 -7 29 101 24 122 -2 11 -9 -11
-16 -49z"/>
<path d="M1366 1311 c-14 -15 -15 -21 -4 -27 7 -4 10 -3 5 1 -4 5 0 17 10 27
9 10 14 18 11 18 -3 0 -13 -9 -22 -19z"/>
<path d="M1640 1140 c13 -9 13 -10 0 -11 -8 -1 -19 -1 -23 0 -5 1 -6 -3 -2 -9
4 -7 12 -7 24 0 10 5 20 7 23 5 3 -3 5 1 5 8 0 7 -10 14 -21 15 -17 1 -18 -1
-6 -8z"/>
<path d="M2199 1243 c-13 -16 -12 -17 4 -4 16 13 21 21 13 21 -2 0 -10 -8 -17
-17z"/>
<path d="M730 1256 c0 -2 7 -7 16 -10 8 -3 12 -2 9 4 -6 10 -25 14 -25 6z"/>
<path d="M666 1122 c-3 -5 1 -9 9 -9 8 0 12 4 9 9 -3 4 -7 8 -9 8 -2 0 -6 -4
-9 -8z"/>
<path d="M2250 1141 c0 -5 8 -11 18 -14 9 -2 26 -8 36 -13 13 -5 17 -4 13 3
-9 14 -67 35 -67 24z"/>
<path d="M3160 1201 c0 -6 4 -13 10 -16 6 -3 7 1 4 9 -7 18 -14 21 -14 7z"/>
<path d="M3265 1091 c-3 -5 -2 -12 3 -15 5 -3 9 1 9 9 0 17 -3 19 -12 6z"/>
<path d="M1770 1170 c-9 -6 -10 -10 -3 -10 6 0 15 5 18 10 8 12 4 12 -15 0z"/>
<path d="M1810 1175 c0 -7 30 -13 34 -7 3 4 -4 9 -15 9 -10 1 -19 0 -19 -2z"/>
<path d="M2520 1145 c-7 -9 -10 -18 -6 -22 3 -3 6 -1 6 6 0 7 7 11 14 8 10 -4
13 -1 9 9 -6 18 -8 18 -23 -1z"/>
<path d="M2650 1090 c-6 -11 -8 -20 -6 -20 3 0 10 9 16 20 6 11 8 20 6 20 -3
0 -10 -9 -16 -20z"/>
<path d="M2006 874 c-3 -8 -10 -13 -14 -10 -5 3 -9 -1 -9 -9 0 -10 4 -12 12
-5 7 5 14 8 16 5 3 -2 5 5 6 15 2 24 -3 26 -11 4z"/>
<path d="M1157 1047 c-3 -7 3 -13 14 -13 13 0 15 3 7 13 -6 7 -12 13 -13 13
-2 0 -5 -6 -8 -13z"/>
<path d="M1559 1053 c-13 -16 -12 -17 4 -4 16 13 21 21 13 21 -2 0 -10 -8 -17
-17z"/>
<path d="M300 1051 c0 -6 4 -13 10 -16 6 -3 7 1 4 9 -7 18 -14 21 -14 7z"/>
<path d="M220 947 c0 -2 6 -10 14 -16 11 -9 16 -9 22 1 4 7 4 10 -1 6 -4 -4
-14 -3 -22 3 -7 6 -13 9 -13 6z"/>
<path d="M2413 965 c0 -8 4 -12 9 -9 5 3 6 10 3 15 -9 13 -12 11 -12 -6z"/>
<path d="M1364 945 c0 -19 3 -22 13 -13 10 8 10 14 2 24 -15 18 -15 18 -15
-11z"/>
<path d="M2665 939 c-4 -6 -5 -12 -2 -15 2 -3 7 2 10 11 7 17 1 20 -8 4z"/>
<path d="M1193 918 c-37 -70 -38 -72 -24 -64 15 9 64 106 57 113 -2 3 -17 -19
-33 -49z"/>
<path d="M1106 931 c-3 -5 2 -15 12 -22 15 -12 16 -12 5 2 -7 9 -10 19 -6 22
3 4 4 7 0 7 -3 0 -8 -4 -11 -9z"/>
<path d="M586 932 c-2 -4 2 -16 10 -27 8 -10 14 -14 14 -9 0 6 -6 16 -12 23
-11 11 -10 13 5 8 11 -4 16 -3 12 3 -7 12 -22 13 -29 2z"/>
<path d="M3346 848 c4 -5 12 -7 19 -4 7 2 18 0 24 -5 8 -6 8 -5 1 3 -11 14
-52 19 -44 6z"/>
<path d="M3310 816 c0 -2 8 -10 18 -17 15 -13 16 -12 3 4 -13 16 -21 21 -21
13z"/>
<path d="M1065 870 c3 -5 11 -10 16 -10 6 0 7 5 4 10 -3 6 -11 10 -16 10 -6 0
-7 -4 -4 -10z"/>
<path d="M1043 773 c0 -9 4 -10 14 -2 7 6 13 12 13 14 0 1 -6 2 -13 2 -8 0
-14 -6 -14 -14z"/>
<path d="M3213 855 c0 -8 4 -12 9 -9 5 3 6 10 3 15 -9 13 -12 11 -12 -6z"/>
<path d="M3210 825 c0 -2 6 -8 13 -14 10 -8 14 -7 14 2 0 8 -6 14 -14 14 -7 0
-13 -1 -13 -2z"/>
<path d="M3135 810 c-3 -6 1 -7 9 -4 18 7 21 14 7 14 -6 0 -13 -4 -16 -10z"/>
<path d="M3160 800 c-12 -7 -10 -9 7 -7 12 0 19 5 17 9 -6 10 -6 10 -24 -2z"/>
<path d="M1650 763 c1 -12 60 -88 60 -77 0 11 -48 84 -55 84 -3 0 -5 -3 -5 -7z"/>
<path d="M1706 737 c3 -10 9 -15 12 -12 3 3 0 11 -7 18 -10 9 -11 8 -5 -6z"/>
<path d="M1830 661 c0 -6 4 -13 10 -16 6 -3 7 1 4 9 -7 18 -14 21 -14 7z"/>
<path d="M2230 776 c0 -2 8 -10 18 -17 15 -13 16 -12 3 4 -13 16 -21 21 -21
13z"/>
<path d="M2246 731 c-4 -5 -2 -12 3 -15 5 -4 12 -2 15 3 4 5 2 12 -3 15 -5 4
-12 2 -15 -3z"/>
<path d="M1420 617 c0 -2 6 -10 14 -16 11 -9 16 -9 22 1 4 7 4 10 -1 6 -4 -4
-14 -3 -22 3 -7 6 -13 9 -13 6z"/>
<path d="M1170 650 c-8 -5 -12 -12 -9 -15 4 -3 12 1 19 10 14 17 11 19 -10 5z"/>
<path d="M1744 1816 c1 -8 5 -18 8 -22 4 -3 5 1 4 10 -1 8 -5 18 -8 22 -4 3
-5 -1 -4 -10z"/>
<path d="M1713 1801 c0 -11 5 -18 9 -15 4 3 5 11 1 19 -7 21 -12 19 -10 -4z"/>
<path d="M1736 1772 c-3 -5 1 -9 9 -9 8 0 12 4 9 9 -3 4 -7 8 -9 8 -2 0 -6 -4
-9 -8z"/>
<path d="M1780 1740 c-8 -5 -10 -10 -5 -10 6 0 17 5 25 10 8 5 11 10 5 10 -5
0 -17 -5 -25 -10z"/>
<path d="M1603 1719 c-2 -23 3 -25 10 -4 4 8 3 16 -1 19 -4 3 -9 -4 -9 -15z"/>
<path d="M1800 1725 c0 -7 30 -13 34 -7 3 4 -4 9 -15 9 -10 1 -19 0 -19 -2z"/>
<path d="M570 1695 c0 -9 8 -18 18 -21 9 -3 63 -24 120 -46 57 -22 106 -38
108 -35 5 5 -65 36 -144 63 -30 11 -58 27 -63 37 -12 21 -39 23 -39 2z"/>
<path d="M1816 1692 c-3 -5 1 -9 9 -9 8 0 12 4 9 9 -3 4 -7 8 -9 8 -2 0 -6 -4
-9 -8z"/>
<path d="M1880 1667 c0 -2 6 -10 14 -16 11 -9 16 -9 22 1 4 7 4 10 -1 6 -4 -4
-14 -3 -22 3 -7 6 -13 9 -13 6z"/>
<path d="M1985 1659 c-4 -6 -5 -12 -2 -15 2 -3 7 2 10 11 7 17 1 20 -8 4z"/>
<path d="M2926 1657 c3 -10 9 -15 12 -12 3 3 0 11 -7 18 -10 9 -11 8 -5 -6z"/>
<path d="M596 1585 c4 -44 8 -82 10 -84 9 -10 3 135 -6 149 -7 10 -8 -10 -4
-65z"/>
<path d="M1556 1652 c-3 -5 1 -9 9 -9 8 0 12 4 9 9 -3 4 -7 8 -9 8 -2 0 -6 -4
-9 -8z"/>
<path d="M2828 1643 c7 -3 16 -2 19 1 4 3 -2 6 -13 5 -11 0 -14 -3 -6 -6z"/>
<path d="M1965 1620 c3 -5 8 -10 11 -10 2 0 4 5 4 10 0 6 -5 10 -11 10 -5 0
-7 -4 -4 -10z"/>
<path d="M1810 1616 c0 -2 7 -7 16 -10 8 -3 12 -2 9 4 -6 10 -25 14 -25 6z"/>
<path d="M2930 1591 c0 -7 -5 -9 -12 -5 -7 5 -8 3 -3 -5 5 -9 10 -10 18 -2 6
6 8 14 4 18 -4 3 -7 1 -7 -6z"/>
<path d="M370 1575 c0 -8 5 -15 12 -15 7 0 48 -18 91 -41 43 -22 80 -39 83
-37 2 3 -30 22 -71 43 -41 22 -77 45 -79 52 -7 18 -36 16 -36 -2z"/>
<path d="M723 1520 c-46 -22 -83 -42 -83 -44 0 -7 24 3 113 43 37 16 67 33 67
36 0 10 -15 4 -97 -35z"/>
<path d="M1185 1551 c-3 -5 -2 -12 3 -15 5 -3 9 1 9 9 0 17 -3 19 -12 6z"/>
<path d="M348 1531 c5 -14 3 -14 -11 -2 -9 7 -17 11 -17 8 0 -2 6 -10 14 -16
12 -10 17 -8 25 7 7 14 7 19 -4 19 -8 0 -11 -7 -7 -16z"/>
<path d="M2576 1502 c-3 -5 0 -9 7 -10 7 0 21 -3 33 -5 14 -4 21 0 21 9 0 10
-4 11 -10 5 -7 -7 -16 -7 -28 -1 -10 6 -20 6 -23 2z"/>
<path d="M3385 1500 c-3 -6 1 -7 9 -4 18 7 21 14 7 14 -6 0 -13 -4 -16 -10z"/>
<path d="M1366 1488 c3 -5 10 -6 15 -3 13 9 11 12 -6 12 -8 0 -12 -4 -9 -9z"/>
<path d="M1396 1483 c-6 -14 -5 -15 5 -6 7 7 10 15 7 18 -3 3 -9 -2 -12 -12z"/>
<path d="M2266 1473 c-6 -14 -5 -15 5 -6 7 7 10 15 7 18 -3 3 -9 -2 -12 -12z"/>
<path d="M655 1440 c11 -5 31 -9 45 -9 23 0 23 1 5 9 -11 5 -31 9 -45 9 -23 0
-23 -1 -5 -9z"/>
<path d="M521 1382 c-55 -67 -52 -73 6 -11 25 27 44 52 41 55 -3 2 -24 -17
-47 -44z"/>
<path d="M3521 1416 c-8 -10 -9 -16 -1 -21 6 -4 9 -1 8 7 -2 7 3 12 10 10 8
-1 11 2 7 8 -8 13 -10 13 -24 -4z"/>
<path d="M585 1400 c-3 -11 -8 -32 -11 -47 -3 -16 -9 -44 -14 -63 -6 -19 -10
-39 -9 -45 1 -18 27 59 28 83 1 12 4 22 9 22 4 0 8 16 9 35 2 39 -3 45 -12 15z"/>
<path d="M3583 1405 c0 -8 4 -12 9 -9 5 3 6 10 3 15 -9 13 -12 11 -12 -6z"/>
<path d="M2591 1378 c1 -13 5 -36 9 -53 7 -27 8 -25 9 17 0 26 -3 50 -9 53 -6
3 -9 -4 -9 -17z"/>
<path d="M2530 1386 c0 -2 8 -10 18 -17 15 -13 16 -12 3 4 -13 16 -21 21 -21
13z"/>
<path d="M2500 1376 c0 -2 7 -7 16 -10 8 -3 12 -2 9 4 -6 10 -25 14 -25 6z"/>
<path d="M226 1347 c3 -10 9 -15 12 -12 3 3 0 11 -7 18 -10 9 -11 8 -5 -6z"/>
<path d="M3615 1341 c-3 -5 -2 -12 3 -15 5 -3 9 1 9 9 0 17 -3 19 -12 6z"/>
<path d="M3767 1339 c7 -7 15 -10 18 -7 3 3 -2 9 -12 12 -14 6 -15 5 -6 -5z"/>
<path d="M3803 1343 c9 -14 -22 -55 -35 -47 -7 4 -8 2 -4 -5 6 -9 11 -9 22 0
25 20 35 47 22 55 -6 4 -8 3 -5 -3z"/>
<path d="M506 1307 c3 -10 9 -15 12 -12 3 3 0 11 -7 18 -10 9 -11 8 -5 -6z"/>
<path d="M3360 1250 c-9 -6 -10 -10 -3 -10 6 0 15 5 18 10 8 12 4 12 -15 0z"/>
<path d="M3696 1251 c8 -8 43 -8 38 0 -2 4 -13 7 -24 6 -10 -1 -17 -3 -14 -6z"/>
<path d="M3465 1219 c-4 -6 -4 -13 -1 -16 3 -4 6 -1 6 7 0 10 4 10 18 -1 15
-13 16 -12 3 4 -16 20 -18 20 -26 6z"/>
<path d="M430 1211 c0 -6 4 -13 10 -16 6 -3 7 1 4 9 -7 18 -14 21 -14 7z"/>
<path d="M3630 940 l-95 -6 130 -2 c72 -1 137 3 145 8 16 11 -16 11 -180 0z"/>
<path d="M54 913 c3 -4 1 -12 -4 -18 -8 -9 -4 -12 12 -11 27 1 31 28 5 32 -11
1 -16 0 -13 -3z m26 -13 c0 -5 -5 -10 -11 -10 -5 0 -7 5 -4 10 3 6 8 10 11 10
2 0 4 -4 4 -10z"/>
<path d="M3480 846 c0 -2 8 -10 18 -17 15 -13 16 -12 3 4 -13 16 -21 21 -21
13z"/>
<path d="M2798 813 c6 -2 10 -8 8 -12 -3 -4 1 -8 9 -8 11 0 12 4 4 14 -6 7
-17 13 -23 12 -7 0 -6 -2 2 -6z"/>
<path d="M346 802 c-3 -5 1 -9 9 -9 8 0 12 4 9 9 -3 4 -7 8 -9 8 -2 0 -6 -4
-9 -8z"/>
<path d="M2757 799 c7 -7 15 -10 18 -7 3 3 -2 9 -12 12 -14 6 -15 5 -6 -5z"/>
<path d="M2994 778 c-4 -7 -4 -10 1 -6 4 4 15 2 24 -5 14 -11 14 -10 2 6 -16
20 -18 21 -27 5z"/>
<path d="M2916 741 c-3 -5 2 -15 12 -22 15 -12 16 -12 5 2 -7 9 -10 19 -6 22
3 4 4 7 0 7 -3 0 -8 -4 -11 -9z"/>
<path d="M706 723 c-6 -14 -5 -15 5 -6 7 7 10 15 7 18 -3 3 -9 -2 -12 -12z"/>
<path d="M2055 731 c-3 -5 0 -13 6 -17 7 -4 9 -3 5 4 -3 5 0 13 6 15 9 4 10 6
1 6 -6 1 -14 -3 -18 -8z"/>
<path d="M736 717 c3 -10 9 -15 12 -12 3 3 0 11 -7 18 -10 9 -11 8 -5 -6z"/>
<path d="M930 699 c0 -10 60 -72 65 -68 2 3 -11 21 -30 39 -19 19 -35 32 -35
29z"/>
<path d="M2086 688 c3 -5 10 -6 15 -3 13 9 11 12 -6 12 -8 0 -12 -4 -9 -9z"/>
<path d="M3333 647 c0 -8 6 -14 14 -14 9 0 10 4 2 14 -6 7 -12 13 -14 13 -1 0
-2 -6 -2 -13z"/>
<path d="M3410 650 c-12 -7 -10 -9 7 -7 12 0 19 5 17 9 -6 10 -6 10 -24 -2z"/>
<path d="M1612 638 c-24 -5 -42 -12 -39 -15 6 -5 117 16 117 23 0 6 -29 3 -78
-8z"/>
<path d="M926 617 c3 -10 9 -15 12 -12 3 3 0 11 -7 18 -10 9 -11 8 -5 -6z"/>
<path d="M417 603 c-13 -12 -7 -23 13 -23 11 0 20 7 20 15 0 15 -21 21 -33 8z"/>
<path d="M2460 600 c0 -5 5 -10 11 -10 5 0 7 5 4 10 -3 6 -8 10 -11 10 -2 0
-4 -4 -4 -10z"/>
<path d="M1610 585 c-11 -13 -11 -18 0 -28 10 -9 11 -9 6 1 -4 7 -2 19 4 27 7
8 10 15 7 15 -2 0 -10 -7 -17 -15z"/>
<path d="M1720 585 c0 -7 30 -13 34 -7 3 4 -4 9 -15 9 -10 1 -19 0 -19 -2z"/>
<path d="M1550 550 c0 -5 5 -10 11 -10 5 0 7 5 4 10 -3 6 -8 10 -11 10 -2 0
-4 -4 -4 -10z"/>
<path d="M2256 553 c-11 -11 -6 -23 9 -23 8 0 15 4 15 9 0 13 -16 22 -24 14z"/>
<path d="M806 537 c3 -10 9 -15 12 -12 3 3 0 11 -7 18 -10 9 -11 8 -5 -6z"/>
<path d="M1096 538 c3 -5 10 -6 15 -3 13 9 11 12 -6 12 -8 0 -12 -4 -9 -9z"/>
<path d="M2050 540 c-17 -11 -20 -9 88 -39 40 -11 70 -16 67 -11 -3 5 -36 16
-74 26 -39 10 -67 22 -65 26 7 10 2 10 -16 -2z"/>
<path d="M1505 510 c-3 -6 1 -7 9 -4 18 7 21 14 7 14 -6 0 -13 -4 -16 -10z"/>
<path d="M810 499 c-12 -8 -10 -9 9 -4 17 5 22 4 16 -5 -5 -9 -4 -11 4 -6 6 4
9 12 6 17 -8 12 -16 11 -35 -2z"/>
<path d="M1923 495 c0 -8 4 -12 9 -9 5 3 6 10 3 15 -9 13 -12 11 -12 -6z"/>
<path d="M2037 489 c7 -7 15 -10 18 -7 3 3 -2 9 -12 12 -14 6 -15 5 -6 -5z"/>
<path d="M2224 485 c-4 -9 -2 -21 4 -27 15 -15 44 -1 40 19 -4 23 -36 29 -44
8z"/>
<path d="M1375 481 c-3 -5 -2 -12 3 -15 5 -3 9 1 9 9 0 17 -3 19 -12 6z"/>
<path d="M2000 480 c-12 -7 -10 -9 7 -7 12 0 19 5 17 9 -6 10 -6 10 -24 -2z"/>
<path d="M2165 449 c-4 -6 -5 -12 -2 -15 2 -3 7 2 10 11 7 17 1 20 -8 4z"/>
<path d="M2196 427 c3 -10 9 -15 12 -12 3 3 0 11 -7 18 -10 9 -11 8 -5 -6z"/>
<path d="M1125 400 c6 -30 16 -40 12 -12 -2 12 -6 24 -10 28 -3 4 -4 -4 -2
-16z"/>
<path d="M2220 406 c0 -2 7 -7 16 -10 8 -3 12 -2 9 4 -6 10 -25 14 -25 6z"/>
<path d="M1450 366 c0 -2 7 -7 16 -10 8 -3 12 -2 9 4 -6 10 -25 14 -25 6z"/>
<path d="M1245 338 c11 -6 44 -29 73 -51 30 -21 56 -37 58 -34 7 6 -124 97
-139 97 -7 0 -3 -6 8 -12z"/>
<path d="M1133 330 c2 -8 13 -16 25 -16 12 -1 19 3 16 8 -3 4 -10 5 -16 2 -6
-4 -15 0 -20 7 -8 12 -9 11 -5 -1z"/>
<path d="M1285 250 c-2 -3 5 -6 15 -7 11 -1 22 2 24 5 3 4 -4 8 -15 8 -11 0
-22 -3 -24 -6z"/>
<path d="M1486 193 c-6 -14 -5 -15 5 -6 7 7 10 15 7 18 -3 3 -9 -2 -12 -12z"/>
<path d="M1466 162 c-3 -5 1 -9 9 -9 8 0 12 4 9 9 -3 4 -7 8 -9 8 -2 0 -6 -4
-9 -8z"/>
</g>
</svg>
